<mxfile host="app.diagrams.net" modified="2023-04-27T22:04:40.597Z" agent="Mozilla/5.0 (Macintosh; Intel Mac OS X 10_15_7) AppleWebKit/537.36 (KHTML, like Gecko) Chrome/111.0.0.0 Safari/537.36" etag="5lYf1hgUFhBLjiOh3ljn" version="21.2.2" type="github">
  <diagram name="Page-1" id="5-gjeD8mgP1GZleK8HL9">
    <mxGraphModel dx="1876" dy="1760" grid="1" gridSize="10" guides="1" tooltips="1" connect="1" arrows="1" fold="1" page="1" pageScale="1" pageWidth="850" pageHeight="1100" math="0" shadow="0">
      <root>
        <mxCell id="0" />
        <mxCell id="1" parent="0" />
        <mxCell id="CC168HfJQsNMVSxnRSan-21" value="" style="rounded=1;whiteSpace=wrap;html=1;" vertex="1" parent="1">
          <mxGeometry x="-50" y="-40" width="390" height="430" as="geometry" />
        </mxCell>
        <mxCell id="CC168HfJQsNMVSxnRSan-5" style="edgeStyle=orthogonalEdgeStyle;rounded=0;orthogonalLoop=1;jettySize=auto;html=1;exitX=0;exitY=0.75;exitDx=0;exitDy=0;entryX=0.992;entryY=0.625;entryDx=0;entryDy=0;entryPerimeter=0;" edge="1" parent="1" source="CC168HfJQsNMVSxnRSan-1" target="CC168HfJQsNMVSxnRSan-2">
          <mxGeometry relative="1" as="geometry" />
        </mxCell>
        <mxCell id="CC168HfJQsNMVSxnRSan-1" value="Vector store&lt;br&gt;ChromaDB" style="rounded=1;whiteSpace=wrap;html=1;fontSize=20;" vertex="1" parent="1">
          <mxGeometry x="530" y="150" width="120" height="60" as="geometry" />
        </mxCell>
        <mxCell id="CC168HfJQsNMVSxnRSan-4" style="edgeStyle=orthogonalEdgeStyle;rounded=0;orthogonalLoop=1;jettySize=auto;html=1;" edge="1" parent="1" source="CC168HfJQsNMVSxnRSan-2" target="CC168HfJQsNMVSxnRSan-1">
          <mxGeometry relative="1" as="geometry" />
        </mxCell>
        <mxCell id="CC168HfJQsNMVSxnRSan-30" style="edgeStyle=orthogonalEdgeStyle;rounded=0;orthogonalLoop=1;jettySize=auto;html=1;exitX=0.75;exitY=1;exitDx=0;exitDy=0;entryX=1;entryY=0.75;entryDx=0;entryDy=0;" edge="1" parent="1" source="CC168HfJQsNMVSxnRSan-2" target="CC168HfJQsNMVSxnRSan-26">
          <mxGeometry relative="1" as="geometry" />
        </mxCell>
        <mxCell id="CC168HfJQsNMVSxnRSan-2" value="Sentence Transformer&lt;br&gt;Embedding" style="rounded=1;whiteSpace=wrap;html=1;fontSize=20;" vertex="1" parent="1">
          <mxGeometry x="360" y="120" width="120" height="120" as="geometry" />
        </mxCell>
        <mxCell id="CC168HfJQsNMVSxnRSan-10" style="edgeStyle=orthogonalEdgeStyle;rounded=0;orthogonalLoop=1;jettySize=auto;html=1;" edge="1" parent="1" source="CC168HfJQsNMVSxnRSan-6" target="CC168HfJQsNMVSxnRSan-9">
          <mxGeometry relative="1" as="geometry" />
        </mxCell>
        <mxCell id="CC168HfJQsNMVSxnRSan-6" value="github.com/benntuecon" style="rounded=1;whiteSpace=wrap;html=1;fontSize=20;" vertex="1" parent="1">
          <mxGeometry x="290" y="-130" width="260" height="80" as="geometry" />
        </mxCell>
        <mxCell id="CC168HfJQsNMVSxnRSan-11" style="edgeStyle=orthogonalEdgeStyle;rounded=0;orthogonalLoop=1;jettySize=auto;html=1;entryX=0.5;entryY=0;entryDx=0;entryDy=0;" edge="1" parent="1" source="CC168HfJQsNMVSxnRSan-9" target="CC168HfJQsNMVSxnRSan-2">
          <mxGeometry relative="1" as="geometry" />
        </mxCell>
        <mxCell id="CC168HfJQsNMVSxnRSan-9" value="text spliter" style="rounded=1;whiteSpace=wrap;html=1;fontSize=20;" vertex="1" parent="1">
          <mxGeometry x="360" width="120" height="80" as="geometry" />
        </mxCell>
        <mxCell id="CC168HfJQsNMVSxnRSan-17" style="edgeStyle=orthogonalEdgeStyle;rounded=0;orthogonalLoop=1;jettySize=auto;html=1;entryX=0;entryY=0.5;entryDx=0;entryDy=0;exitX=1;exitY=0.5;exitDx=0;exitDy=0;" edge="1" parent="1" source="CC168HfJQsNMVSxnRSan-34" target="CC168HfJQsNMVSxnRSan-20">
          <mxGeometry relative="1" as="geometry">
            <mxPoint x="-30" y="180" as="targetPoint" />
            <mxPoint x="-80" y="180" as="sourcePoint" />
          </mxGeometry>
        </mxCell>
        <mxCell id="CC168HfJQsNMVSxnRSan-49" style="edgeStyle=orthogonalEdgeStyle;rounded=0;orthogonalLoop=1;jettySize=auto;html=1;entryX=0.4;entryY=0.983;entryDx=0;entryDy=0;entryPerimeter=0;" edge="1" parent="1" source="CC168HfJQsNMVSxnRSan-18" target="CC168HfJQsNMVSxnRSan-46">
          <mxGeometry relative="1" as="geometry" />
        </mxCell>
        <mxCell id="CC168HfJQsNMVSxnRSan-18" value="Visiter" style="shape=umlActor;verticalLabelPosition=bottom;verticalAlign=top;html=1;outlineConnect=0;fontSize=21;" vertex="1" parent="1">
          <mxGeometry x="-300" y="380" width="30" height="60" as="geometry" />
        </mxCell>
        <mxCell id="CC168HfJQsNMVSxnRSan-25" style="edgeStyle=orthogonalEdgeStyle;rounded=0;orthogonalLoop=1;jettySize=auto;html=1;" edge="1" parent="1" source="CC168HfJQsNMVSxnRSan-20" target="CC168HfJQsNMVSxnRSan-24">
          <mxGeometry relative="1" as="geometry" />
        </mxCell>
        <mxCell id="CC168HfJQsNMVSxnRSan-20" value="prompt&lt;br&gt;engineering&amp;nbsp;&lt;br&gt;layer" style="rounded=1;whiteSpace=wrap;html=1;fontSize=20;" vertex="1" parent="1">
          <mxGeometry x="-20" y="140" width="120" height="80" as="geometry" />
        </mxCell>
        <mxCell id="CC168HfJQsNMVSxnRSan-22" value="Langchain" style="text;html=1;strokeColor=none;fillColor=none;align=center;verticalAlign=middle;whiteSpace=wrap;rounded=0;fontSize=23;" vertex="1" parent="1">
          <mxGeometry x="50" y="-30" width="190" height="30" as="geometry" />
        </mxCell>
        <mxCell id="CC168HfJQsNMVSxnRSan-27" style="edgeStyle=orthogonalEdgeStyle;rounded=0;orthogonalLoop=1;jettySize=auto;html=1;" edge="1" parent="1" source="CC168HfJQsNMVSxnRSan-24" target="CC168HfJQsNMVSxnRSan-26">
          <mxGeometry relative="1" as="geometry" />
        </mxCell>
        <mxCell id="CC168HfJQsNMVSxnRSan-24" value="Summarize JD with GPT" style="rounded=1;whiteSpace=wrap;html=1;fontSize=20;" vertex="1" parent="1">
          <mxGeometry x="-20" y="260" width="120" height="80" as="geometry" />
        </mxCell>
        <mxCell id="CC168HfJQsNMVSxnRSan-29" style="edgeStyle=orthogonalEdgeStyle;rounded=0;orthogonalLoop=1;jettySize=auto;html=1;entryX=0.5;entryY=1;entryDx=0;entryDy=0;" edge="1" parent="1" source="CC168HfJQsNMVSxnRSan-26" target="CC168HfJQsNMVSxnRSan-2">
          <mxGeometry relative="1" as="geometry" />
        </mxCell>
        <mxCell id="CC168HfJQsNMVSxnRSan-32" value="" style="edgeStyle=orthogonalEdgeStyle;rounded=0;orthogonalLoop=1;jettySize=auto;html=1;" edge="1" parent="1" source="CC168HfJQsNMVSxnRSan-26" target="CC168HfJQsNMVSxnRSan-31">
          <mxGeometry relative="1" as="geometry" />
        </mxCell>
        <mxCell id="CC168HfJQsNMVSxnRSan-26" value="match relevant repo" style="rounded=1;whiteSpace=wrap;html=1;fontSize=20;" vertex="1" parent="1">
          <mxGeometry x="140" y="260" width="120" height="80" as="geometry" />
        </mxCell>
        <mxCell id="CC168HfJQsNMVSxnRSan-44" style="edgeStyle=orthogonalEdgeStyle;rounded=0;orthogonalLoop=1;jettySize=auto;html=1;" edge="1" parent="1" source="CC168HfJQsNMVSxnRSan-31" target="CC168HfJQsNMVSxnRSan-43">
          <mxGeometry relative="1" as="geometry" />
        </mxCell>
        <mxCell id="CC168HfJQsNMVSxnRSan-31" value="repo &amp;amp; JD&lt;br&gt;and prompting" style="whiteSpace=wrap;html=1;fontSize=20;rounded=1;" vertex="1" parent="1">
          <mxGeometry x="140" y="140" width="120" height="80" as="geometry" />
        </mxCell>
        <mxCell id="CC168HfJQsNMVSxnRSan-34" value="Validator" style="rounded=1;whiteSpace=wrap;html=1;fontSize=20;" vertex="1" parent="1">
          <mxGeometry x="-315" y="140" width="90" height="80" as="geometry" />
        </mxCell>
        <mxCell id="CC168HfJQsNMVSxnRSan-39" value="get request&lt;br&gt;with&amp;nbsp;&lt;br&gt;text" style="text;html=1;strokeColor=none;fillColor=none;align=center;verticalAlign=middle;whiteSpace=wrap;rounded=0;fontSize=22;" vertex="1" parent="1">
          <mxGeometry x="-250" y="320" width="60" height="140" as="geometry" />
        </mxCell>
        <mxCell id="CC168HfJQsNMVSxnRSan-41" value="Query silimirity" style="text;html=1;strokeColor=none;fillColor=none;align=center;verticalAlign=middle;whiteSpace=wrap;rounded=0;fontSize=17;" vertex="1" parent="1">
          <mxGeometry x="240" y="270" width="190" height="30" as="geometry" />
        </mxCell>
        <mxCell id="CC168HfJQsNMVSxnRSan-42" value="get relevant repo" style="text;html=1;strokeColor=none;fillColor=none;align=center;verticalAlign=middle;whiteSpace=wrap;rounded=0;fontSize=17;" vertex="1" parent="1">
          <mxGeometry x="250" y="320" width="190" height="30" as="geometry" />
        </mxCell>
        <mxCell id="CC168HfJQsNMVSxnRSan-45" style="edgeStyle=orthogonalEdgeStyle;rounded=0;orthogonalLoop=1;jettySize=auto;html=1;exitX=0;exitY=0.5;exitDx=0;exitDy=0;entryX=0.063;entryY=0;entryDx=0;entryDy=0;entryPerimeter=0;" edge="1" parent="1" source="CC168HfJQsNMVSxnRSan-43" target="CC168HfJQsNMVSxnRSan-46">
          <mxGeometry relative="1" as="geometry">
            <mxPoint x="-313" y="70" as="targetPoint" />
          </mxGeometry>
        </mxCell>
        <mxCell id="CC168HfJQsNMVSxnRSan-43" value="summary with GPT" style="whiteSpace=wrap;html=1;fontSize=20;rounded=1;" vertex="1" parent="1">
          <mxGeometry x="140" y="30" width="120" height="80" as="geometry" />
        </mxCell>
        <mxCell id="CC168HfJQsNMVSxnRSan-50" style="edgeStyle=orthogonalEdgeStyle;rounded=0;orthogonalLoop=1;jettySize=auto;html=1;exitX=0.25;exitY=1;exitDx=0;exitDy=0;entryX=0;entryY=0.3333333333333333;entryDx=0;entryDy=0;entryPerimeter=0;" edge="1" parent="1" source="CC168HfJQsNMVSxnRSan-46" target="CC168HfJQsNMVSxnRSan-18">
          <mxGeometry relative="1" as="geometry">
            <Array as="points">
              <mxPoint x="-310" y="400" />
            </Array>
          </mxGeometry>
        </mxCell>
        <mxCell id="CC168HfJQsNMVSxnRSan-53" style="edgeStyle=orthogonalEdgeStyle;rounded=0;orthogonalLoop=1;jettySize=auto;html=1;entryX=0.5;entryY=1;entryDx=0;entryDy=0;" edge="1" parent="1" source="CC168HfJQsNMVSxnRSan-46" target="CC168HfJQsNMVSxnRSan-34">
          <mxGeometry relative="1" as="geometry" />
        </mxCell>
        <mxCell id="CC168HfJQsNMVSxnRSan-46" value="backend" style="rounded=1;whiteSpace=wrap;html=1;fontSize=20;" vertex="1" parent="1">
          <mxGeometry x="-350" y="260" width="160" height="60" as="geometry" />
        </mxCell>
        <mxCell id="CC168HfJQsNMVSxnRSan-51" value="return summary" style="text;html=1;strokeColor=none;fillColor=none;align=center;verticalAlign=middle;whiteSpace=wrap;rounded=0;fontSize=22;" vertex="1" parent="1">
          <mxGeometry x="-230" y="40" width="60" height="50" as="geometry" />
        </mxCell>
        <mxCell id="CC168HfJQsNMVSxnRSan-52" value="return summary" style="text;html=1;strokeColor=none;fillColor=none;align=center;verticalAlign=middle;whiteSpace=wrap;rounded=0;fontSize=22;" vertex="1" parent="1">
          <mxGeometry x="-380" y="340" width="60" height="50" as="geometry" />
        </mxCell>
      </root>
    </mxGraphModel>
  </diagram>
</mxfile>
